<svg xmlns="http://www.w3.org/2000/svg" viewBox="0 0 576 512" width="32" height="32">
  <defs>
    <style>
      .plane { fill: #2563eb; }
    </style>
  </defs>
  
  <!-- Font Awesome plane icon path -->
  <path class="plane" d="M482.3 192c34.2 0 93.7 29 93.7 64c0 36-59.5 64-93.7 64l-116.6 0L265.2 495.9c-5.7 10-16.3 16.1-27.8 16.1l-56.2 0c-10.6 0-18.3-10.2-15.4-20.4l49-171.6L112 320 68.8 377.6c-3.4 4.8-9 7.7-14.9 7.7L32 385.3c-9.2 0-15.3-9.3-11.6-17.6L52.4 256 20.4 144.3C16.7 136 22.8 126.7 32 126.7l21.9 0c5.9 0 11.5 2.9 14.9 7.7L112 192l102.9 0-49-171.6C162.9 10.2 170.6 0 181.2 0l56.2 0c11.5 0 22.1 6.2 27.8 16.1L365.7 192l116.6 0z"/>
</svg>
