<svg xmlns="http://www.w3.org/2000/svg" viewBox="0 0 32 32" width="32" height="32">
  <defs>
    <style>
      .plane { fill: #2563eb; }
    </style>
  </defs>
  
  <!-- Simplified Font Awesome plane icon for small sizes -->
  <path class="plane" d="M26.7 10.7c1.9 0 5.2 1.6 5.2 3.6c0 2-3.3 3.6-5.2 3.6l-6.5 0L13.8 27.5c-0.3 0.6-0.9 0.9-1.5 0.9l-3.1 0c-0.6 0-1-0.6-0.9-1.1l2.7-9.5L6.2 17.8 4.8 21c-0.2 0.3-0.5 0.4-0.8 0.4L2.8 21.4c-0.5 0-0.9-0.5-0.6-1L4.9 16 2.2 11.6c-0.2-0.5 0.1-1 0.6-1L4 10.6c0.3 0 0.6 0.2 0.8 0.4L6.2 14.2l4.8 0-2.7-9.5C8.2 4.1 8.6 3.6 9.2 3.6l3.1 0c0.6 0 1.2 0.3 1.5 0.9L20.2 14.3l6.5 0z"/>
</svg>
